<svg width="168" height="168" viewBox="0 0 168 168" fill="none" xmlns="http://www.w3.org/2000/svg">
<g id="Group 1173">
<circle id="Ellipse 339" cx="84.0922" cy="84.3391" r="83.6074" fill="url(#paint0_radial_56_350)" fill-opacity="0.6"/>
<g id="Ellipse 336" filter="url(#filter0_d_56_350)">
<ellipse cx="73.8124" cy="107.549" rx="52.5358" ry="32.9122" fill="url(#paint1_linear_56_350)" fill-opacity="0.5" shape-rendering="crispEdges"/>
<path d="M125.831 107.549C125.831 116.395 120.106 124.481 110.686 130.382C101.273 136.279 88.238 139.943 73.8124 139.943C59.3867 139.943 46.3513 136.279 36.9388 130.382C27.5191 124.481 21.7942 116.395 21.7942 107.549C21.7942 98.7024 27.5191 90.6159 36.9388 84.7148C46.3513 78.8181 59.3867 75.154 73.8124 75.154C88.238 75.154 101.273 78.8181 110.686 84.7148C120.106 90.6159 125.831 98.7024 125.831 107.549Z" stroke="url(#paint2_linear_56_350)" stroke-opacity="0.6" stroke-width="1.03515" shape-rendering="crispEdges"/>
</g>
<circle id="Ellipse 330" cx="73.8128" cy="76.8589" r="66.65" fill="url(#paint3_radial_56_350)"/>
<g id="Ellipse 337" filter="url(#filter1_d_56_350)">
<ellipse cx="73.8127" cy="87.8787" rx="65.1615" ry="38.1208" fill="url(#paint4_linear_56_350)" fill-opacity="0.5" shape-rendering="crispEdges"/>
<path d="M138.457 87.8787C138.457 98.1457 131.339 107.536 119.627 114.387C107.928 121.232 91.7311 125.482 73.8127 125.482C55.8942 125.482 39.6974 121.232 27.9979 114.387C16.2859 107.536 9.1687 98.1457 9.1687 87.8787C9.1687 77.6118 16.2859 68.2218 27.9979 61.37C39.6974 54.5256 55.8942 50.2756 73.8127 50.2756C91.7311 50.2756 107.928 54.5256 119.627 61.37C131.339 68.2218 138.457 77.6118 138.457 87.8787Z" stroke="url(#paint5_linear_56_350)" stroke-opacity="0.6" stroke-width="1.03515" shape-rendering="crispEdges"/>
</g>
<g id="Ellipse 331">
<circle cx="73.814" cy="76.8591" r="49.369" fill="url(#paint6_radial_56_350)"/>
<circle cx="73.814" cy="76.8591" r="49.369" fill="url(#paint7_radial_56_350)"/>
</g>
<g id="Ellipse 335" filter="url(#filter2_d_56_350)">
<ellipse cx="73.8144" cy="64.2128" rx="64.4987" ry="37.2392" fill="url(#paint8_linear_56_350)" fill-opacity="0.5" shape-rendering="crispEdges"/>
<path d="M137.796 64.2128C137.796 74.233 130.757 83.4029 119.163 90.0967C107.583 96.7826 91.5509 100.934 73.8144 100.934C56.0778 100.934 40.0458 96.7826 28.4657 90.0967C16.872 83.4029 9.83325 74.233 9.83325 64.2128C9.83325 54.1927 16.872 45.0228 28.4657 38.329C40.0458 31.6431 56.0778 27.4912 73.8144 27.4912C91.5509 27.4912 107.583 31.6431 119.163 38.329C130.757 45.0228 137.796 54.1927 137.796 64.2128Z" stroke="url(#paint9_linear_56_350)" stroke-opacity="0.6" stroke-width="1.03515" shape-rendering="crispEdges"/>
</g>
<g id="Ellipse 334" filter="url(#filter3_d_56_350)">
<ellipse cx="73.8118" cy="44.9832" rx="50.0491" ry="32.3504" fill="url(#paint10_linear_56_350)" fill-opacity="0.5" shape-rendering="crispEdges"/>
<path d="M123.343 44.9832C123.343 53.682 117.888 61.6277 108.921 67.4237C99.9593 73.2163 87.5478 76.816 73.8118 76.816C60.0759 76.816 47.6644 73.2163 38.7027 67.4237C29.7358 61.6277 24.2803 53.682 24.2803 44.9832C24.2803 36.2843 29.7358 28.3386 38.7027 22.5426C47.6644 16.75 60.0759 13.1503 73.8118 13.1503C87.5478 13.1503 99.9593 16.75 108.921 22.5426C117.888 28.3386 123.343 36.2843 123.343 44.9832Z" stroke="url(#paint11_linear_56_350)" stroke-opacity="0.6" stroke-width="1.03515" shape-rendering="crispEdges"/>
</g>
<g id="Ellipse 333" filter="url(#filter4_d_56_350)">
<ellipse cx="73.8137" cy="33.7469" rx="31.1518" ry="21.1141" fill="url(#paint12_linear_56_350)" fill-opacity="0.5" shape-rendering="crispEdges"/>
<path d="M104.448 33.7469C104.448 39.3545 101.095 44.4909 95.551 48.2484C90.0101 52.0039 82.3264 54.3434 73.8137 54.3434C65.301 54.3434 57.6173 52.0039 52.0764 48.2484C46.5327 44.4909 43.1794 39.3545 43.1794 33.7469C43.1794 28.1393 46.5327 23.0028 52.0764 19.2453C57.6173 15.4898 65.301 13.1503 73.8137 13.1503C82.3264 13.1503 90.0101 15.4898 95.551 19.2453C101.095 23.0028 104.448 28.1393 104.448 33.7469Z" stroke="url(#paint13_linear_56_350)" stroke-opacity="0.6" stroke-width="1.03515" shape-rendering="crispEdges"/>
</g>
<circle id="Ellipse 338" cx="73.8128" cy="76.8589" r="66.65" fill="url(#paint14_radial_56_350)" fill-opacity="0.9"/>
</g>
<defs>
<filter id="filter0_d_56_350" x="14.5481" y="67.9079" width="120.599" height="81.3518" filterUnits="userSpaceOnUse" color-interpolation-filters="sRGB">
<feFlood flood-opacity="0" result="BackgroundImageFix"/>
<feColorMatrix in="SourceAlpha" type="matrix" values="0 0 0 0 0 0 0 0 0 0 0 0 0 0 0 0 0 0 127 0" result="hardAlpha"/>
<feOffset dx="1.03515" dy="1.03515"/>
<feGaussianBlur stdDeviation="3.88183"/>
<feComposite in2="hardAlpha" operator="out"/>
<feColorMatrix type="matrix" values="0 0 0 0 0.440043 0 0 0 0 0.20092 0 0 0 0 0.679167 0 0 0 0.2 0"/>
<feBlend mode="normal" in2="BackgroundImageFix" result="effect1_dropShadow_56_350"/>
<feBlend mode="normal" in="SourceGraphic" in2="effect1_dropShadow_56_350" result="shape"/>
</filter>
<filter id="filter1_d_56_350" x="1.92262" y="43.0295" width="145.85" height="91.7688" filterUnits="userSpaceOnUse" color-interpolation-filters="sRGB">
<feFlood flood-opacity="0" result="BackgroundImageFix"/>
<feColorMatrix in="SourceAlpha" type="matrix" values="0 0 0 0 0 0 0 0 0 0 0 0 0 0 0 0 0 0 127 0" result="hardAlpha"/>
<feOffset dx="1.03515" dy="1.03515"/>
<feGaussianBlur stdDeviation="3.88183"/>
<feComposite in2="hardAlpha" operator="out"/>
<feColorMatrix type="matrix" values="0 0 0 0 0.440043 0 0 0 0 0.20092 0 0 0 0 0.679167 0 0 0 0.2 0"/>
<feBlend mode="normal" in2="BackgroundImageFix" result="effect1_dropShadow_56_350"/>
<feBlend mode="normal" in="SourceGraphic" in2="effect1_dropShadow_56_350" result="shape"/>
</filter>
<filter id="filter2_d_56_350" x="2.58717" y="20.2452" width="144.525" height="90.0057" filterUnits="userSpaceOnUse" color-interpolation-filters="sRGB">
<feFlood flood-opacity="0" result="BackgroundImageFix"/>
<feColorMatrix in="SourceAlpha" type="matrix" values="0 0 0 0 0 0 0 0 0 0 0 0 0 0 0 0 0 0 127 0" result="hardAlpha"/>
<feOffset dx="1.03515" dy="1.03515"/>
<feGaussianBlur stdDeviation="3.88183"/>
<feComposite in2="hardAlpha" operator="out"/>
<feColorMatrix type="matrix" values="0 0 0 0 0.440043 0 0 0 0 0.20092 0 0 0 0 0.679167 0 0 0 0.2 0"/>
<feBlend mode="normal" in2="BackgroundImageFix" result="effect1_dropShadow_56_350"/>
<feBlend mode="normal" in="SourceGraphic" in2="effect1_dropShadow_56_350" result="shape"/>
</filter>
<filter id="filter3_d_56_350" x="17.0342" y="5.90422" width="115.626" height="80.2282" filterUnits="userSpaceOnUse" color-interpolation-filters="sRGB">
<feFlood flood-opacity="0" result="BackgroundImageFix"/>
<feColorMatrix in="SourceAlpha" type="matrix" values="0 0 0 0 0 0 0 0 0 0 0 0 0 0 0 0 0 0 127 0" result="hardAlpha"/>
<feOffset dx="1.03515" dy="1.03515"/>
<feGaussianBlur stdDeviation="3.88183"/>
<feComposite in2="hardAlpha" operator="out"/>
<feColorMatrix type="matrix" values="0 0 0 0 0.440043 0 0 0 0 0.20092 0 0 0 0 0.679167 0 0 0 0.2 0"/>
<feBlend mode="normal" in2="BackgroundImageFix" result="effect1_dropShadow_56_350"/>
<feBlend mode="normal" in="SourceGraphic" in2="effect1_dropShadow_56_350" result="shape"/>
</filter>
<filter id="filter4_d_56_350" x="35.9334" y="5.90422" width="77.831" height="57.7556" filterUnits="userSpaceOnUse" color-interpolation-filters="sRGB">
<feFlood flood-opacity="0" result="BackgroundImageFix"/>
<feColorMatrix in="SourceAlpha" type="matrix" values="0 0 0 0 0 0 0 0 0 0 0 0 0 0 0 0 0 0 127 0" result="hardAlpha"/>
<feOffset dx="1.03515" dy="1.03515"/>
<feGaussianBlur stdDeviation="3.88183"/>
<feComposite in2="hardAlpha" operator="out"/>
<feColorMatrix type="matrix" values="0 0 0 0 0.440043 0 0 0 0 0.20092 0 0 0 0 0.679167 0 0 0 0.2 0"/>
<feBlend mode="normal" in2="BackgroundImageFix" result="effect1_dropShadow_56_350"/>
<feBlend mode="normal" in="SourceGraphic" in2="effect1_dropShadow_56_350" result="shape"/>
</filter>
<radialGradient id="paint0_radial_56_350" cx="0" cy="0" r="1" gradientUnits="userSpaceOnUse" gradientTransform="translate(84.0922 84.3391) rotate(90) scale(83.6074)">
<stop stop-color="#FF65C1"/>
<stop offset="1" stop-color="#FF65C1" stop-opacity="0"/>
</radialGradient>
<linearGradient id="paint1_linear_56_350" x1="126.348" y1="100.425" x2="21.3096" y2="108.006" gradientUnits="userSpaceOnUse">
<stop stop-color="#4E53BE" stop-opacity="0.5"/>
<stop offset="0.885417" stop-color="#FB33FF" stop-opacity="0.5"/>
<stop offset="1" stop-color="white" stop-opacity="0.5"/>
</linearGradient>
<linearGradient id="paint2_linear_56_350" x1="82.9947" y1="154.752" x2="89.5438" y2="81.9261" gradientUnits="userSpaceOnUse">
<stop stop-color="white"/>
<stop offset="1" stop-color="white" stop-opacity="0"/>
</linearGradient>
<radialGradient id="paint3_radial_56_350" cx="0" cy="0" r="1" gradientUnits="userSpaceOnUse" gradientTransform="translate(7.16285 101.104) rotate(-19.6638) scale(141.555)">
<stop offset="0.249306" stop-color="white"/>
<stop offset="0.48315" stop-color="#FF8FED" stop-opacity="0.5"/>
<stop offset="0.627037" stop-color="#220C7A" stop-opacity="0.5"/>
</radialGradient>
<linearGradient id="paint4_linear_56_350" x1="138.974" y1="79.6277" x2="8.79106" y2="89.6894" gradientUnits="userSpaceOnUse">
<stop stop-color="#4E53BE" stop-opacity="0.5"/>
<stop offset="0.885417" stop-color="#FB33FF" stop-opacity="0.5"/>
<stop offset="1" stop-color="white" stop-opacity="0.5"/>
</linearGradient>
<linearGradient id="paint5_linear_56_350" x1="85.2017" y1="142.552" x2="92.2927" y2="58.1146" gradientUnits="userSpaceOnUse">
<stop stop-color="white"/>
<stop offset="1" stop-color="white" stop-opacity="0"/>
</linearGradient>
<radialGradient id="paint6_radial_56_350" cx="0" cy="0" r="1" gradientUnits="userSpaceOnUse" gradientTransform="translate(89.6796 126.228) rotate(-107.749) scale(99.169)">
<stop offset="0.223958" stop-color="white"/>
<stop offset="0.466382" stop-color="#FFCEF1"/>
<stop offset="0.682292" stop-color="#B6B9FF"/>
<stop offset="0.881791" stop-color="white"/>
</radialGradient>
<radialGradient id="paint7_radial_56_350" cx="0" cy="0" r="1" gradientUnits="userSpaceOnUse" gradientTransform="translate(98.2063 126.228) rotate(-100.377) scale(135.421)">
<stop stop-color="white"/>
<stop offset="1" stop-color="white" stop-opacity="0"/>
</radialGradient>
<linearGradient id="paint8_linear_56_350" x1="138.313" y1="56.1526" x2="9.47461" y2="66.2424" gradientUnits="userSpaceOnUse">
<stop stop-color="#4E53BE" stop-opacity="0.5"/>
<stop offset="0.885417" stop-color="#FB33FF" stop-opacity="0.5"/>
<stop offset="1" stop-color="white" stop-opacity="0.5"/>
</linearGradient>
<linearGradient id="paint9_linear_56_350" x1="85.0876" y1="117.622" x2="91.9252" y2="35.122" gradientUnits="userSpaceOnUse">
<stop stop-color="white"/>
<stop offset="1" stop-color="white" stop-opacity="0"/>
</linearGradient>
<linearGradient id="paint10_linear_56_350" x1="123.861" y1="37.981" x2="23.7627" y2="44.9832" gradientUnits="userSpaceOnUse">
<stop stop-color="#4E53BE" stop-opacity="0.5"/>
<stop offset="0.885417" stop-color="#FB33FF" stop-opacity="0.5"/>
<stop offset="1" stop-color="white" stop-opacity="0.5"/>
</linearGradient>
<linearGradient id="paint11_linear_56_350" x1="82.5595" y1="91.3804" x2="89.198" y2="19.835" gradientUnits="userSpaceOnUse">
<stop stop-color="white"/>
<stop offset="1" stop-color="white" stop-opacity="0"/>
</linearGradient>
<linearGradient id="paint12_linear_56_350" x1="104.965" y1="29.1768" x2="42.6344" y2="33.335" gradientUnits="userSpaceOnUse">
<stop stop-color="#4E53BE" stop-opacity="0.5"/>
<stop offset="0.885417" stop-color="#FB33FF" stop-opacity="0.5"/>
<stop offset="1" stop-color="white" stop-opacity="0.5"/>
</linearGradient>
<linearGradient id="paint13_linear_56_350" x1="79.2585" y1="64.0289" x2="83.7979" y2="17.3731" gradientUnits="userSpaceOnUse">
<stop stop-color="white"/>
<stop offset="1" stop-color="white" stop-opacity="0"/>
</linearGradient>
<radialGradient id="paint14_radial_56_350" cx="0" cy="0" r="1" gradientUnits="userSpaceOnUse" gradientTransform="translate(47.0448 151.928) rotate(-65.1363) scale(210.169)">
<stop offset="0.249306" stop-color="white"/>
<stop offset="0.48315" stop-color="#FF8FED" stop-opacity="0.5"/>
<stop offset="0.627037" stop-color="#220C7A" stop-opacity="0"/>
</radialGradient>
</defs>
</svg>
