<svg width="20" height="20" viewBox="0 0 20 20" fill="none" xmlns="http://www.w3.org/2000/svg">
<path d="M0.952062 7.70182C0.650151 8.00362 0.410655 8.36195 0.247256 8.75633C0.0838573 9.15072 -0.000244141 9.57343 -0.000244141 10.0003C-0.000244141 10.4272 0.0838573 10.8499 0.247256 11.2443C0.410655 11.6387 0.650151 11.997 0.952062 12.2988L7.70206 19.0488C8.00387 19.3507 8.3622 19.5902 8.75658 19.7536C9.15096 19.917 9.57367 20.0011 10.0006 20.0011C10.4275 20.0011 10.8502 19.917 11.2445 19.7536C11.6389 19.5902 11.9973 19.3507 12.2991 19.0488L19.0491 12.2988C19.351 11.997 19.5905 11.6387 19.7539 11.2443C19.9173 10.8499 20.0014 10.4272 20.0014 10.0003C20.0014 9.57343 19.9173 9.15072 19.7539 8.75633C19.5905 8.36195 19.351 8.00362 19.0491 7.70182L12.2991 0.951818C11.9973 0.649906 11.6389 0.410411 11.2445 0.247012C10.8502 0.0836132 10.4275 -0.000488281 10.0006 -0.000488281C9.57367 -0.000488281 9.15096 0.0836132 8.75658 0.247012C8.3622 0.410411 8.00387 0.649906 7.70206 0.951818L0.952062 7.70182Z" fill="#14ADB8"/>
</svg>
