<svg width="48" height="35" viewBox="0 0 48 35" fill="none" xmlns="http://www.w3.org/2000/svg">
<path d="M47.4 4.74355L45.5 2.94092L27.9 19.6389C25.7 21.7262 22 21.7262 19.8 19.6389L2.19999 3.03579L0.299988 4.83842L13.4 17.2671L0.299988 29.6957L2.19999 31.4983L15.3 19.0697L17.9 21.5364C19.5 23.0545 21.6 23.9083 23.8 23.9083C26 23.9083 28.1 23.0545 29.7 21.5364L32.3 19.0697L45.4 31.4983L47.3 29.6957L34.2 17.2671L47.4 4.74355Z" fill="#134563"/>
<path d="M43.7 34.7243H4.2C1.9 34.7243 0 32.9217 0 30.7396V3.98476C0 1.80263 1.9 0 4.2 0H43.7C46 0 47.9 1.80263 47.9 3.98476V30.7396C47.9 32.9217 46 34.7243 43.7 34.7243ZM4.1 2.56163C3.3 2.56163 2.7 3.13088 2.7 3.88988V30.6447C2.7 31.4037 3.3 31.9729 4.1 31.9729H43.6C44.4 31.9729 45 31.4037 45 30.6447V3.88988C45 3.13088 44.4 2.56163 43.6 2.56163H4.1Z" fill="#134563"/>
</svg>
