<svg width="34" height="45" viewBox="0 0 34 45" fill="none" xmlns="http://www.w3.org/2000/svg">
<path d="M16.8 44.876L15.9 43.8323C15.3 43.0733 0 26.0907 0 15.939C0 7.11564 7.6 0 16.8 0C26 0 33.6 7.21051 33.6 15.939C33.6 26.0907 18.3 43.1682 17.7 43.8323L16.8 44.876ZM16.8 2.18213C8.8 2.18213 2.4 8.34902 2.4 15.8442C2.4 23.8137 13.5 37.3808 16.8 41.2707C20.1 37.3808 31.2 23.9085 31.2 15.8442C31.2 8.34902 24.8 2.18213 16.8 2.18213Z" fill="#546E7A"/>
<path d="M16.8 22.0112C13.3 22.0112 10.4 19.2598 10.4 15.9392C10.4 12.6186 13.3 9.86719 16.8 9.86719C20.3 9.86719 23.2 12.6186 23.2 15.9392C23.2 19.2598 20.3 22.0112 16.8 22.0112ZM16.8 12.1442C14.6 12.1442 12.8 13.8519 12.8 15.9392C12.8 18.0265 14.6 19.7342 16.8 19.7342C19 19.7342 20.8 18.0265 20.8 15.9392C20.8 13.8519 19 12.1442 16.8 12.1442Z" fill="#546E7A"/>
</svg>
