<svg width="16" height="16" viewBox="0 0 16 16" fill="none" xmlns="http://www.w3.org/2000/svg">
<path d="M15.9945 13.2814C16.0551 13.1175 9.09085 7.85892 9.09085 7.85892C8.21897 7.21551 7.76041 7.20539 6.89822 7.85892C6.89822 7.85892 -0.0559043 13.1132 0.00262695 13.2749L0.0012207 13.2761C0.00193945 13.2775 0.0030957 13.2784 0.00406445 13.2797C0.0630411 13.4405 0.148828 13.5901 0.257783 13.7221C0.303814 13.7779 0.359283 13.8247 0.412627 13.8733L0.410033 13.8753C0.414283 13.8791 0.419939 13.8808 0.424189 13.8846C0.650283 14.0863 0.935408 14.2169 1.25216 14.2542C1.25713 14.2548 1.26113 14.2574 1.2661 14.258H1.28522C1.33338 14.2626 1.37916 14.2741 1.42847 14.2741H14.576C15.2234 14.2741 15.7719 13.867 15.9898 13.2963C15.9924 13.292 15.9964 13.289 15.9988 13.2846L15.9945 13.2814Z" fill="#96A9B2"/>
<path d="M8.00424 7.25552L0.0380859 13.2301V4.76612C0.0380859 3.94112 0.706742 3.27246 1.53174 3.27246H14.4767C15.3017 3.27246 15.9704 3.94112 15.9704 4.76612V13.2301L8.00424 7.25552Z" fill="#B9C5C6"/>
<path d="M0.130859 4.24692L6.93227 9.58907C7.7907 10.2225 8.2422 10.2325 9.09111 9.58907L15.8818 4.25539C15.764 4.04182 15.5876 3.87311 15.3859 3.73857L15.4793 3.66539C15.2514 3.45786 14.96 3.32332 14.6365 3.28857L1.37227 3.28904C1.0497 3.32332 0.757828 3.45832 0.530328 3.66539L0.623047 3.73767C0.423672 3.87032 0.248922 4.03614 0.130859 4.24692Z" fill="#EDECE6"/>
<path d="M0.128699 4.25774C0.0689805 4.41915 6.92595 9.59665 6.92595 9.59665C7.78439 10.2301 8.23589 10.2401 9.08479 9.59665C9.08479 9.59665 15.9318 4.42334 15.8741 4.26415L15.8755 4.26299C15.8748 4.26159 15.8737 4.26068 15.8727 4.2594C15.8147 4.10112 15.7302 3.95383 15.6229 3.8238C15.5776 3.76884 15.523 3.72284 15.4705 3.67496L15.473 3.67299C15.4689 3.66927 15.4633 3.66752 15.4591 3.6638C15.2365 3.46524 14.9558 3.33662 14.6439 3.2999C14.639 3.2993 14.6351 3.29677 14.6302 3.29618H14.6114C14.564 3.29165 14.5189 3.28027 14.4703 3.28027H1.52532C0.887887 3.28027 0.347824 3.68115 0.133355 4.24305C0.130793 4.24724 0.126855 4.25027 0.124512 4.25455L0.128699 4.25774Z" fill="#DCE2E2"/>
<path d="M9.10634 4.83286H7.89909C7.84808 4.83286 7.79915 4.85312 7.76308 4.8892C7.72701 4.92527 7.70675 4.97419 7.70675 5.0252V5.70402C7.70675 5.75503 7.72701 5.80395 7.76308 5.84002C7.79915 5.87609 7.84808 5.89636 7.89909 5.89636H8.88081C8.93182 5.89636 8.98075 5.91662 9.01682 5.9527C9.05289 5.98877 9.07315 6.03769 9.07315 6.0887V6.4517C9.07315 6.50272 9.05289 6.55164 9.01682 6.58771C8.98075 6.62378 8.93182 6.64405 8.88081 6.64405H7.89909C7.84808 6.64405 7.79915 6.66431 7.76308 6.70038C7.72701 6.73645 7.70675 6.78538 7.70675 6.83639V7.5732C7.70675 7.62422 7.72701 7.67314 7.76308 7.70921C7.79915 7.74528 7.84808 7.76555 7.89909 7.76555H9.19021C9.24123 7.76555 9.29015 7.78581 9.32622 7.82188C9.36229 7.85795 9.38256 7.90688 9.38256 7.95789V8.34667C9.38256 8.39768 9.36229 8.44661 9.32622 8.48268C9.29015 8.51875 9.24123 8.53902 9.19021 8.53902H6.82271C6.7717 8.53902 6.72278 8.51875 6.68671 8.48268C6.65064 8.44661 6.63037 8.39768 6.63037 8.34667V4.26461C6.63037 4.2136 6.65064 4.16467 6.68671 4.1286C6.72278 4.09253 6.7717 4.07227 6.82271 4.07227H9.16053C9.27768 4.07227 9.36762 4.17608 9.3509 4.29205L9.29675 4.66792C9.29015 4.71372 9.26727 4.7556 9.23229 4.78589C9.19732 4.81618 9.15261 4.83286 9.10634 4.83286Z" fill="#597B91"/>
</svg>
