<svg width="64" height="64" viewBox="0 0 64 64" fill="none" xmlns="http://www.w3.org/2000/svg">
<path d="M48.648 53.3351C48.3239 53.3355 48.0084 53.2309 47.7487 53.0369C47.4891 52.843 47.2992 52.5702 47.2076 52.2593C47.1159 51.9484 47.1274 51.6162 47.2403 51.3125C47.3533 51.0087 47.5615 50.7496 47.834 50.5741C49.2473 49.643 50.4493 48.4254 51.362 47.0001C52.225 45.6891 52.521 44.6281 52.244 43.8441C51.681 42.2501 48.65 41.0991 46.073 40.2741C44.9352 39.9057 43.7175 39.8595 42.5551 40.1407C41.3926 40.4219 40.3307 41.0194 39.487 41.8671L38.511 42.8441C38.3362 43.0192 38.1208 43.1484 37.884 43.2201C37.214 43.4201 33.537 44.0841 26.729 37.2751C26.5895 37.1358 26.4787 36.9705 26.4031 36.7884C26.3275 36.6063 26.2885 36.4112 26.2883 36.214C26.2881 36.0169 26.3268 35.8216 26.402 35.6394C26.4773 35.4572 26.5877 35.2916 26.727 35.1521C26.8663 35.0126 27.0317 34.9019 27.2137 34.8262C27.3958 34.7506 27.591 34.7116 27.7881 34.7114C27.9852 34.7112 28.1805 34.7499 28.3627 34.8252C28.5449 34.9004 28.7105 35.0108 28.85 35.1501C33.316 39.6171 35.93 40.2451 36.79 40.3181L37.366 39.7421C38.5992 38.5048 40.1503 37.6324 41.8482 37.2213C43.546 36.8101 45.3244 36.8761 46.987 37.4121C50.352 38.4901 54.028 39.8861 55.072 42.8401C55.679 44.5551 55.272 46.5081 53.872 48.6401C52.7301 50.4192 51.2273 51.9386 49.461 53.1001C49.2182 53.2549 48.9359 53.3364 48.648 53.3351ZM41.441 55.3471C34.575 55.3471 26.692 51.3771 19.658 44.3421C19.5147 44.2037 19.4005 44.0382 19.3219 43.8552C19.2432 43.6722 19.2019 43.4754 19.2001 43.2762C19.1984 43.077 19.2364 42.8795 19.3118 42.6952C19.3872 42.5108 19.4986 42.3434 19.6394 42.2025C19.7803 42.0617 19.9477 41.9503 20.1321 41.8749C20.3164 41.7995 20.5139 41.7615 20.7131 41.7632C20.9123 41.765 21.1091 41.8064 21.2921 41.885C21.4751 41.9636 21.6406 42.0779 21.779 42.2211C28.417 48.8601 36.049 52.6331 42.169 52.3291C42.3663 52.3164 42.5642 52.3434 42.7509 52.4084C42.9377 52.4735 43.1095 52.5753 43.2562 52.7079C43.4029 52.8404 43.5216 53.001 43.6052 53.1802C43.6888 53.3594 43.7357 53.5535 43.743 53.7511C43.7631 54.1484 43.6246 54.5374 43.358 54.8326C43.0913 55.1278 42.7183 55.3049 42.321 55.3251C42.03 55.3391 41.736 55.3471 41.441 55.3471Z" fill="#546E7A"/>
<path d="M20.718 44.7818C20.521 44.782 20.326 44.7432 20.1441 44.6677C19.9622 44.5922 19.797 44.4814 19.658 44.3418C12.09 36.7748 8.00801 27.9888 8.73901 20.8398C8.9467 18.6667 9.6515 16.5705 10.7989 14.7134C11.9463 12.8563 13.5055 11.288 15.356 10.1298C17.493 8.72983 19.446 8.32283 21.156 8.92983C24.11 9.97383 25.507 13.6498 26.584 17.0148C27.1208 18.6774 27.1872 20.456 26.776 22.154C26.3648 23.8519 25.492 25.4031 24.254 26.6358L23.663 27.2278C23.735 28.0008 24.318 30.6278 28.846 35.1518C29.1192 35.4347 29.2704 35.8136 29.267 36.2069C29.2636 36.6002 29.1059 36.9764 28.8277 37.2546C28.5496 37.5327 28.1734 37.6904 27.7801 37.6938C27.3868 37.6973 27.0079 37.5461 26.725 37.2728C19.917 30.4658 20.579 26.7868 20.78 26.1188C20.8511 25.8817 20.9803 25.6662 21.156 25.4918L22.133 24.5148C22.98 23.6709 23.5772 22.6092 23.8583 21.447C24.1394 20.2849 24.0937 19.0676 23.726 17.9298C22.901 15.3518 21.75 12.3208 20.157 11.7578C19.372 11.4808 18.31 11.7768 17 12.6388C15.519 13.549 14.2706 14.792 13.354 16.2691C12.4375 17.7462 11.878 19.4167 11.72 21.1478C11.079 27.4078 14.838 35.2868 21.775 42.2228C21.9849 42.4326 22.1279 42.6999 22.1858 42.991C22.2438 43.2821 22.2141 43.5838 22.1005 43.8579C21.9869 44.1321 21.7945 44.3664 21.5477 44.5312C21.3009 44.6961 21.0108 44.784 20.714 44.7838L20.718 44.7818Z" fill="#546E7A"/>
</svg>
