<svg width="17" height="17" viewBox="0 0 17 17" fill="none" xmlns="http://www.w3.org/2000/svg">
<path d="M11.729 1.27087C11.542 1.08286 11.288 0.976828 11.0228 0.976078C10.7577 0.975328 10.5031 1.07993 10.315 1.26687C10.2157 1.36792 10.139 1.48893 10.09 1.62187C9.258 3.35787 8.342 4.33687 7.186 4.91487C5.889 5.55487 4.4 5.99987 2 5.99987C1.8027 6.00132 1.61015 6.06052 1.44612 6.17017C1.28209 6.27982 1.15377 6.43511 1.077 6.61687C1.0013 6.79964 0.981504 7.00076 1.02013 7.19479C1.05876 7.38881 1.15407 7.56702 1.294 7.70687L4.537 10.9499L0 16.9999L6.05 12.4629L9.292 15.7049C9.3853 15.798 9.49609 15.8717 9.618 15.9219C9.74133 15.9732 9.86867 15.9992 10 15.9999C10.197 16.0009 10.26 15.9729 10.382 15.9219C10.5646 15.8464 10.7207 15.7186 10.8307 15.5545C10.9406 15.3904 10.9996 15.1974 11 14.9999C11 12.5999 11.444 11.1109 12.083 9.83387C12.66 8.67787 13.639 7.76187 15.376 6.92987C15.5086 6.88074 15.6292 6.80405 15.73 6.70487C15.9169 6.51681 16.0215 6.2622 16.0208 5.99704C16.02 5.73187 15.914 5.47786 15.726 5.29087L11.729 1.27087Z" fill="#EA1515"/>
</svg>
