<svg width="115" height="168" viewBox="0 0 115 168" fill="none" xmlns="http://www.w3.org/2000/svg">
<circle cx="30.6074" cy="83.6074" r="83.6074" fill="url(#paint0_radial_0_482)" fill-opacity="0.6"/>
<g filter="url(#filter0_d_0_482)">
<ellipse cx="20.3274" cy="106.817" rx="52.5358" ry="32.9122" fill="url(#paint1_linear_0_482)" fill-opacity="0.5" shape-rendering="crispEdges"/>
<path d="M72.3456 106.817C72.3456 115.663 66.6207 123.75 57.201 129.651C47.7885 135.548 34.753 139.212 20.3274 139.212C5.90175 139.212 -7.13369 135.548 -16.5462 129.651C-25.9659 123.75 -31.6908 115.663 -31.6908 106.817C-31.6908 97.9708 -25.9659 89.8843 -16.5462 83.9832C-7.13369 78.0865 5.90175 74.4224 20.3274 74.4224C34.753 74.4224 47.7885 78.0865 57.201 83.9832C66.6207 89.8843 72.3456 97.9708 72.3456 106.817Z" stroke="url(#paint2_linear_0_482)" stroke-opacity="0.6" stroke-width="1.03515" shape-rendering="crispEdges"/>
</g>
<circle cx="20.3279" cy="76.127" r="66.65" fill="url(#paint3_radial_0_482)"/>
<g filter="url(#filter1_d_0_482)">
<ellipse cx="20.3278" cy="87.1471" rx="65.1615" ry="38.1208" fill="url(#paint4_linear_0_482)" fill-opacity="0.5" shape-rendering="crispEdges"/>
<path d="M84.9718 87.1471C84.9718 97.4141 77.8546 106.804 66.1426 113.656C54.4431 120.5 38.2462 124.75 20.3278 124.75C2.40936 124.75 -13.7875 120.5 -25.487 113.656C-37.199 106.804 -44.3162 97.4141 -44.3162 87.1471C-44.3162 76.8801 -37.199 67.4902 -25.487 60.6384C-13.7875 53.794 2.40936 49.5439 20.3278 49.5439C38.2462 49.5439 54.4431 53.794 66.1426 60.6384C77.8546 67.4902 84.9718 76.8801 84.9718 87.1471Z" stroke="url(#paint5_linear_0_482)" stroke-opacity="0.6" stroke-width="1.03515" shape-rendering="crispEdges"/>
</g>
<circle cx="20.3293" cy="76.1273" r="49.369" fill="url(#paint6_radial_0_482)"/>
<circle cx="20.3293" cy="76.1273" r="49.369" fill="url(#paint7_radial_0_482)"/>
<g filter="url(#filter2_d_0_482)">
<ellipse cx="20.3295" cy="63.4814" rx="64.4987" ry="37.2392" fill="url(#paint8_linear_0_482)" fill-opacity="0.5" shape-rendering="crispEdges"/>
<path d="M84.3107 63.4814C84.3107 73.5015 77.2719 82.6714 65.6782 89.3652C54.0981 96.0511 38.0661 100.203 20.3295 100.203C2.59297 100.203 -13.4391 96.0511 -25.0192 89.3652C-36.6129 82.6714 -43.6516 73.5015 -43.6516 63.4814C-43.6516 53.4612 -36.6129 44.2913 -25.0192 37.5975C-13.4391 30.9116 2.59297 26.7598 20.3295 26.7598C38.0661 26.7598 54.0981 30.9116 65.6782 37.5975C77.2719 44.2913 84.3107 53.4612 84.3107 63.4814Z" stroke="url(#paint9_linear_0_482)" stroke-opacity="0.6" stroke-width="1.03515" shape-rendering="crispEdges"/>
</g>
<g filter="url(#filter3_d_0_482)">
<ellipse cx="20.3271" cy="44.2513" rx="50.0491" ry="32.3504" fill="url(#paint10_linear_0_482)" fill-opacity="0.5" shape-rendering="crispEdges"/>
<path d="M69.8587 44.2513C69.8587 52.9502 64.4032 60.8959 55.4362 66.6919C46.4745 72.4845 34.063 76.0842 20.3271 76.0842C6.59119 76.0842 -5.82033 72.4845 -14.782 66.6919C-23.7489 60.8959 -29.2045 52.9502 -29.2045 44.2513C-29.2045 35.5525 -23.7489 27.6068 -14.782 21.8108C-5.82033 16.0182 6.59119 12.4185 20.3271 12.4185C34.063 12.4185 46.4745 16.0182 55.4362 21.8108C64.4032 27.6068 69.8587 35.5525 69.8587 44.2513Z" stroke="url(#paint11_linear_0_482)" stroke-opacity="0.6" stroke-width="1.03515" shape-rendering="crispEdges"/>
</g>
<g filter="url(#filter4_d_0_482)">
<ellipse cx="20.329" cy="33.015" rx="31.1518" ry="21.1141" fill="url(#paint12_linear_0_482)" fill-opacity="0.5" shape-rendering="crispEdges"/>
<path d="M50.9632 33.015C50.9632 38.6226 47.61 43.7591 42.0663 47.5165C36.5254 51.272 28.8416 53.6116 20.329 53.6116C11.8163 53.6116 4.13255 51.272 -1.40832 47.5165C-6.95207 43.7591 -10.3053 38.6226 -10.3053 33.015C-10.3053 27.4074 -6.95207 22.271 -1.40832 18.5135C4.13255 14.758 11.8163 12.4185 20.329 12.4185C28.8416 12.4185 36.5254 14.758 42.0663 18.5135C47.61 22.271 50.9632 27.4074 50.9632 33.015Z" stroke="url(#paint13_linear_0_482)" stroke-opacity="0.6" stroke-width="1.03515" shape-rendering="crispEdges"/>
</g>
<circle cx="20.3279" cy="76.127" r="66.65" fill="url(#paint14_radial_0_482)" fill-opacity="0.9"/>
<defs>
<filter id="filter0_d_0_482" x="-38.9369" y="67.1763" width="120.599" height="81.3515" filterUnits="userSpaceOnUse" color-interpolation-filters="sRGB">
<feFlood flood-opacity="0" result="BackgroundImageFix"/>
<feColorMatrix in="SourceAlpha" type="matrix" values="0 0 0 0 0 0 0 0 0 0 0 0 0 0 0 0 0 0 127 0" result="hardAlpha"/>
<feOffset dx="1.03515" dy="1.03515"/>
<feGaussianBlur stdDeviation="3.88183"/>
<feComposite in2="hardAlpha" operator="out"/>
<feColorMatrix type="matrix" values="0 0 0 0 0.440043 0 0 0 0 0.20092 0 0 0 0 0.679167 0 0 0 0.2 0"/>
<feBlend mode="normal" in2="BackgroundImageFix" result="effect1_dropShadow_0_482"/>
<feBlend mode="normal" in="SourceGraphic" in2="effect1_dropShadow_0_482" result="shape"/>
</filter>
<filter id="filter1_d_0_482" x="-51.5622" y="42.2979" width="145.85" height="91.769" filterUnits="userSpaceOnUse" color-interpolation-filters="sRGB">
<feFlood flood-opacity="0" result="BackgroundImageFix"/>
<feColorMatrix in="SourceAlpha" type="matrix" values="0 0 0 0 0 0 0 0 0 0 0 0 0 0 0 0 0 0 127 0" result="hardAlpha"/>
<feOffset dx="1.03515" dy="1.03515"/>
<feGaussianBlur stdDeviation="3.88183"/>
<feComposite in2="hardAlpha" operator="out"/>
<feColorMatrix type="matrix" values="0 0 0 0 0.440043 0 0 0 0 0.20092 0 0 0 0 0.679167 0 0 0 0.2 0"/>
<feBlend mode="normal" in2="BackgroundImageFix" result="effect1_dropShadow_0_482"/>
<feBlend mode="normal" in="SourceGraphic" in2="effect1_dropShadow_0_482" result="shape"/>
</filter>
<filter id="filter2_d_0_482" x="-50.8977" y="19.5137" width="144.525" height="90.0058" filterUnits="userSpaceOnUse" color-interpolation-filters="sRGB">
<feFlood flood-opacity="0" result="BackgroundImageFix"/>
<feColorMatrix in="SourceAlpha" type="matrix" values="0 0 0 0 0 0 0 0 0 0 0 0 0 0 0 0 0 0 127 0" result="hardAlpha"/>
<feOffset dx="1.03515" dy="1.03515"/>
<feGaussianBlur stdDeviation="3.88183"/>
<feComposite in2="hardAlpha" operator="out"/>
<feColorMatrix type="matrix" values="0 0 0 0 0.440043 0 0 0 0 0.20092 0 0 0 0 0.679167 0 0 0 0.2 0"/>
<feBlend mode="normal" in2="BackgroundImageFix" result="effect1_dropShadow_0_482"/>
<feBlend mode="normal" in="SourceGraphic" in2="effect1_dropShadow_0_482" result="shape"/>
</filter>
<filter id="filter3_d_0_482" x="-36.4506" y="5.17237" width="115.626" height="80.228" filterUnits="userSpaceOnUse" color-interpolation-filters="sRGB">
<feFlood flood-opacity="0" result="BackgroundImageFix"/>
<feColorMatrix in="SourceAlpha" type="matrix" values="0 0 0 0 0 0 0 0 0 0 0 0 0 0 0 0 0 0 127 0" result="hardAlpha"/>
<feOffset dx="1.03515" dy="1.03515"/>
<feGaussianBlur stdDeviation="3.88183"/>
<feComposite in2="hardAlpha" operator="out"/>
<feColorMatrix type="matrix" values="0 0 0 0 0.440043 0 0 0 0 0.20092 0 0 0 0 0.679167 0 0 0 0.2 0"/>
<feBlend mode="normal" in2="BackgroundImageFix" result="effect1_dropShadow_0_482"/>
<feBlend mode="normal" in="SourceGraphic" in2="effect1_dropShadow_0_482" result="shape"/>
</filter>
<filter id="filter4_d_0_482" x="-17.5514" y="5.17237" width="77.831" height="57.7553" filterUnits="userSpaceOnUse" color-interpolation-filters="sRGB">
<feFlood flood-opacity="0" result="BackgroundImageFix"/>
<feColorMatrix in="SourceAlpha" type="matrix" values="0 0 0 0 0 0 0 0 0 0 0 0 0 0 0 0 0 0 127 0" result="hardAlpha"/>
<feOffset dx="1.03515" dy="1.03515"/>
<feGaussianBlur stdDeviation="3.88183"/>
<feComposite in2="hardAlpha" operator="out"/>
<feColorMatrix type="matrix" values="0 0 0 0 0.440043 0 0 0 0 0.20092 0 0 0 0 0.679167 0 0 0 0.2 0"/>
<feBlend mode="normal" in2="BackgroundImageFix" result="effect1_dropShadow_0_482"/>
<feBlend mode="normal" in="SourceGraphic" in2="effect1_dropShadow_0_482" result="shape"/>
</filter>
<radialGradient id="paint0_radial_0_482" cx="0" cy="0" r="1" gradientUnits="userSpaceOnUse" gradientTransform="translate(30.6074 83.6074) rotate(90) scale(83.6074)">
<stop stop-color="#FF65C1"/>
<stop offset="1" stop-color="#FF65C1" stop-opacity="0"/>
</radialGradient>
<linearGradient id="paint1_linear_0_482" x1="72.863" y1="99.6933" x2="-32.1754" y2="107.274" gradientUnits="userSpaceOnUse">
<stop stop-color="#4E53BE" stop-opacity="0.5"/>
<stop offset="0.885417" stop-color="#FB33FF" stop-opacity="0.5"/>
<stop offset="1" stop-color="white" stop-opacity="0.5"/>
</linearGradient>
<linearGradient id="paint2_linear_0_482" x1="29.5097" y1="154.02" x2="36.0589" y2="81.1945" gradientUnits="userSpaceOnUse">
<stop stop-color="white"/>
<stop offset="1" stop-color="white" stop-opacity="0"/>
</linearGradient>
<radialGradient id="paint3_radial_0_482" cx="0" cy="0" r="1" gradientUnits="userSpaceOnUse" gradientTransform="translate(-46.322 100.372) rotate(-19.6638) scale(141.555)">
<stop offset="0.249306" stop-color="white"/>
<stop offset="0.48315" stop-color="#FF8FED" stop-opacity="0.5"/>
<stop offset="0.627037" stop-color="#220C7A" stop-opacity="0.5"/>
</radialGradient>
<linearGradient id="paint4_linear_0_482" x1="85.4892" y1="78.896" x2="-44.6938" y2="88.9577" gradientUnits="userSpaceOnUse">
<stop stop-color="#4E53BE" stop-opacity="0.5"/>
<stop offset="0.885417" stop-color="#FB33FF" stop-opacity="0.5"/>
<stop offset="1" stop-color="white" stop-opacity="0.5"/>
</linearGradient>
<linearGradient id="paint5_linear_0_482" x1="31.7169" y1="141.82" x2="38.8078" y2="57.383" gradientUnits="userSpaceOnUse">
<stop stop-color="white"/>
<stop offset="1" stop-color="white" stop-opacity="0"/>
</linearGradient>
<radialGradient id="paint6_radial_0_482" cx="0" cy="0" r="1" gradientUnits="userSpaceOnUse" gradientTransform="translate(36.1948 125.496) rotate(-107.749) scale(99.169)">
<stop offset="0.223958" stop-color="white"/>
<stop offset="0.466382" stop-color="#FFCEF1"/>
<stop offset="0.682292" stop-color="#B6B9FF"/>
<stop offset="0.881791" stop-color="white"/>
</radialGradient>
<radialGradient id="paint7_radial_0_482" cx="0" cy="0" r="1" gradientUnits="userSpaceOnUse" gradientTransform="translate(44.7215 125.496) rotate(-100.377) scale(135.421)">
<stop stop-color="white"/>
<stop offset="1" stop-color="white" stop-opacity="0"/>
</radialGradient>
<linearGradient id="paint8_linear_0_482" x1="84.8281" y1="55.4211" x2="-44.0103" y2="65.5109" gradientUnits="userSpaceOnUse">
<stop stop-color="#4E53BE" stop-opacity="0.5"/>
<stop offset="0.885417" stop-color="#FB33FF" stop-opacity="0.5"/>
<stop offset="1" stop-color="white" stop-opacity="0.5"/>
</linearGradient>
<linearGradient id="paint9_linear_0_482" x1="31.6028" y1="116.89" x2="38.4403" y2="34.3906" gradientUnits="userSpaceOnUse">
<stop stop-color="white"/>
<stop offset="1" stop-color="white" stop-opacity="0"/>
</linearGradient>
<linearGradient id="paint10_linear_0_482" x1="70.3761" y1="37.2492" x2="-29.7221" y2="44.2513" gradientUnits="userSpaceOnUse">
<stop stop-color="#4E53BE" stop-opacity="0.5"/>
<stop offset="0.885417" stop-color="#FB33FF" stop-opacity="0.5"/>
<stop offset="1" stop-color="white" stop-opacity="0.5"/>
</linearGradient>
<linearGradient id="paint11_linear_0_482" x1="29.0748" y1="90.6486" x2="35.7132" y2="19.1032" gradientUnits="userSpaceOnUse">
<stop stop-color="white"/>
<stop offset="1" stop-color="white" stop-opacity="0"/>
</linearGradient>
<linearGradient id="paint12_linear_0_482" x1="51.4807" y1="28.4449" x2="-10.8504" y2="32.6031" gradientUnits="userSpaceOnUse">
<stop stop-color="#4E53BE" stop-opacity="0.5"/>
<stop offset="0.885417" stop-color="#FB33FF" stop-opacity="0.5"/>
<stop offset="1" stop-color="white" stop-opacity="0.5"/>
</linearGradient>
<linearGradient id="paint13_linear_0_482" x1="25.7738" y1="63.2971" x2="30.3131" y2="16.6413" gradientUnits="userSpaceOnUse">
<stop stop-color="white"/>
<stop offset="1" stop-color="white" stop-opacity="0"/>
</linearGradient>
<radialGradient id="paint14_radial_0_482" cx="0" cy="0" r="1" gradientUnits="userSpaceOnUse" gradientTransform="translate(-6.44011 151.196) rotate(-65.1363) scale(210.169)">
<stop offset="0.249306" stop-color="white"/>
<stop offset="0.48315" stop-color="#FF8FED" stop-opacity="0.5"/>
<stop offset="0.627037" stop-color="#220C7A" stop-opacity="0"/>
</radialGradient>
</defs>
</svg>
