<svg width="90" height="87" viewBox="0 0 90 87" fill="none" xmlns="http://www.w3.org/2000/svg">
<path d="M90 43.0072C90 19.255 69.8528 0 45 0C20.1472 0 0 19.255 0 43.0072C0 66.7594 20.1472 86.0144 45 86.0144C69.8528 86.0144 90 66.7594 90 43.0072Z" fill="url(#paint0_linear_0_225)"/>
<path d="M66.5386 38.1294C69.8474 38.1294 72.8562 39.4064 75.0287 41.4827C77.2012 43.559 78.5374 46.4346 78.5374 49.5968C78.5374 52.7677 77.2012 55.6346 75.0287 57.7109C72.8562 59.7872 69.8474 61.0729 66.5386 61.0729C63.2208 61.0729 60.2211 59.7872 58.0486 57.7109C55.8761 55.6346 54.5308 52.7677 54.5308 49.5968C54.5308 46.4346 55.8761 43.559 58.0486 41.4827C60.2211 39.4064 63.2208 38.1294 66.5386 38.1294ZM74.1106 42.3602C72.1744 40.5011 69.4929 39.3543 66.5386 39.3543C63.5753 39.3543 60.8938 40.5011 58.9576 42.3602C57.0214 44.2106 55.8215 46.7734 55.8215 49.5968C55.8215 52.4289 57.0214 54.983 58.9576 56.8422C60.8938 58.6926 63.5753 59.8393 66.5386 59.8393C69.4929 59.8393 72.1744 58.6926 74.1106 56.8422C76.0559 54.983 77.2557 52.4289 77.2557 49.5968C77.2557 46.7734 76.0559 44.2106 74.1106 42.3602Z" fill="white"/>
<path d="M44.9954 35.9661C50.0312 35.9661 54.5853 37.9121 57.885 41.0657C61.1847 44.2192 63.2208 48.5716 63.2208 53.3845C63.2208 58.1886 61.1847 62.541 57.885 65.6946C54.5853 68.8481 50.0312 70.7941 44.9954 70.7941C39.9686 70.7941 35.4145 68.8481 32.1149 65.6946C28.8152 62.541 26.7791 58.1886 26.7791 53.3845C26.7791 48.5716 28.8152 44.2192 32.1149 41.0657C35.4145 37.9121 39.9686 35.9661 44.9954 35.9661ZM44.9954 14.5776C47.986 14.5776 50.6948 15.7331 52.6492 17.6009C54.6126 19.4774 55.8216 22.0575 55.8216 24.9157C55.8216 27.7739 54.6126 30.354 52.6492 32.2305C50.6948 34.0983 47.986 35.2538 44.9954 35.2538C42.0139 35.2538 39.3051 34.0983 37.3507 32.2305C35.3873 30.354 34.1783 27.7739 34.1783 24.9157C34.1783 22.0575 35.3873 19.4774 37.3507 17.6009C39.3051 15.7331 42.0139 14.5776 44.9954 14.5776ZM51.7402 18.4696C50.0131 16.8277 47.6315 15.8026 44.9954 15.8026C42.3684 15.8026 39.9868 16.8277 38.2597 18.4696C36.5326 20.1202 35.4691 22.3963 35.4691 24.9157C35.4691 27.4264 36.5326 29.7112 38.2597 31.3531C39.9868 33.0037 42.3684 34.0288 44.9954 34.0288C47.6315 34.0288 50.0131 33.0037 51.7402 31.3531C53.4673 29.7112 54.5308 27.4264 54.5308 24.9157C54.5308 22.3963 53.4673 20.1202 51.7402 18.4696ZM56.976 41.9344C53.9127 39.0067 49.6767 37.1997 44.9954 37.1997C40.3231 37.1997 36.0872 39.0067 33.0239 41.9344C29.9606 44.8708 28.0607 48.9104 28.0607 53.3845C28.0607 57.8498 29.9606 61.8982 33.0239 64.8258C36.0872 67.7535 40.3231 69.5692 44.9954 69.5692C49.6767 69.5692 53.9127 67.7535 56.976 64.8258C60.0393 61.8982 61.93 57.8498 61.93 53.3845C61.93 48.9104 60.0393 44.8708 56.976 41.9344Z" fill="white"/>
<path d="M55.049 11.7974C56.6397 11.7974 57.9214 13.0223 57.9214 14.5426C57.9214 16.0629 56.6397 17.2965 55.049 17.2965C53.4582 17.2965 52.1765 16.0629 52.1765 14.5426C52.1765 13.0223 53.4582 11.7974 55.049 11.7974Z" fill="white"/>
<path d="M23.4612 38.1294C26.7791 38.1294 29.7788 39.4064 31.9513 41.4827C34.1238 43.559 35.4691 46.4346 35.4691 49.5968C35.4691 52.7677 34.1238 55.6346 31.9513 57.7109C29.7788 59.7872 26.7791 61.0729 23.4612 61.0729C20.1434 61.0729 17.1437 59.7872 14.9712 57.7109C12.7987 55.6346 11.4534 52.7677 11.4534 49.5968C11.4534 46.4346 12.7987 43.559 14.9712 41.4827C17.1437 39.4064 20.1434 38.1294 23.4612 38.1294ZM31.0423 42.3602C29.097 40.5011 26.4246 39.3543 23.4612 39.3543C20.507 39.3543 17.8255 40.5011 15.8893 42.3602C13.944 44.2106 12.7441 46.7734 12.7441 49.5968C12.7441 52.4289 13.944 54.983 15.8893 56.8422C17.8255 58.6926 20.507 59.8393 23.4612 59.8393C26.4246 59.8393 29.097 58.6926 31.0423 56.8422C32.9785 54.983 34.1783 52.4289 34.1783 49.5968C34.1783 46.7734 32.9785 44.2106 31.0423 42.3602Z" fill="white"/>
<path d="M23.4613 23.8037C25.4521 23.8037 27.261 24.5769 28.5699 25.8279C29.8789 27.0702 30.6788 28.799 30.6788 30.7015C30.6788 32.6128 29.8789 34.3329 28.5699 35.5839C27.261 36.8349 25.4521 37.6081 23.4613 37.6081C21.4706 37.6081 19.6617 36.8349 18.3528 35.5839C17.0529 34.3329 16.2439 32.6128 16.2439 30.7015C16.2439 28.799 17.0529 27.0702 18.3528 25.8279C19.6617 24.5769 21.4706 23.8037 23.4613 23.8037ZM27.6609 26.6966C26.5883 25.6715 25.0975 25.0373 23.4613 25.0373C21.8251 25.0373 20.3435 25.6715 19.2709 26.6966C18.1982 27.7217 17.5256 29.1378 17.5256 30.7015C17.5256 32.274 18.1982 33.69 19.2709 34.7151C20.3435 35.7403 21.8251 36.3744 23.4613 36.3744C25.0975 36.3744 26.5883 35.7403 27.6609 34.7151C28.7335 33.69 29.3971 32.274 29.3971 30.7015C29.3971 29.1378 28.7335 27.7217 27.6609 26.6966Z" fill="white"/>
<path d="M66.5386 23.8555C68.5293 23.8555 70.3382 24.6287 71.638 25.871C72.947 27.1219 73.756 28.8508 73.756 30.7533C73.756 32.6559 72.947 34.3847 71.638 35.6356C70.3382 36.8866 68.5293 37.6511 66.5386 37.6511C64.5388 37.6511 62.7389 36.8866 61.43 35.6356C60.121 34.3847 59.312 32.6559 59.312 30.7533C59.312 28.8508 60.121 27.1219 61.43 25.871C62.7389 24.6287 64.5388 23.8555 66.5386 23.8555ZM70.729 26.7484C69.6564 25.7146 68.1747 25.0804 66.5386 25.0804C64.9024 25.0804 63.4116 25.7146 62.339 26.7484C61.2664 27.7735 60.6028 29.1896 60.6028 30.7533C60.6028 32.317 61.2664 33.7331 62.339 34.7669C63.4116 35.792 64.9024 36.4262 66.5386 36.4262C68.1747 36.4262 69.6564 35.792 70.729 34.7669C71.8017 33.7331 72.4652 32.317 72.4652 30.7533C72.4652 29.1896 71.8017 27.7735 70.729 26.7484Z" fill="white"/>
<defs>
<linearGradient id="paint0_linear_0_225" x1="7.34261e-07" y1="43.0029" x2="81.4277" y2="77.0644" gradientUnits="userSpaceOnUse">
<stop stop-color="#60CAC6"/>
<stop offset="1" stop-color="#133F8A"/>
</linearGradient>
</defs>
</svg>
